<!DOCTYPE svg PUBLIC "-//W3C//DTD SVG 1.1//EN" "http://www.w3.org/Graphics/SVG/1.1/DTD/svg11.dtd">

<!-- Uploaded to: SVG Repo, www.svgrepo.com, Transformed by: SVG Repo Mixer Tools -->
<svg aria-hidden="true" fill="#000000" width="28px" height="28px" viewBox="-6.24 -6.24 60.48 60.48" dataName="Layer 1" id="Layer_1" xmlns="http://www.w3.org/2000/svg" stroke="#000000" strokeWidth="0.00048000000000000007">
<g id="SVGRepo_bgCarrier" strokeWidth="0"/>
<g id="SVGRepo_tracerCarrier" strokeLinecap="round" strokeLinejoin="round"/>
<g id="SVGRepo_iconCarrier">
<title/>
<path className="path-color" d="M42,3H28a2,2,0,0,0-2-2H22a2,2,0,0,0-2,2H6A2,2,0,0,0,6,7H42a2,2,0,0,0,0-4Z"/>
<path className="path-color" d="M39,9a2,2,0,0,0-2,2V43H11V11a2,2,0,0,0-4,0V45a2,2,0,0,0,2,2H39a2,2,0,0,0,2-2V11A2,2,0,0,0,39,9Z"/>
<path className="path-color" d="M21,37V19a2,2,0,0,0-4,0V37a2,2,0,0,0,4,0Z"/>
<path className="path-color" d="M31,37V19a2,2,0,0,0-4,0V37a2,2,0,0,0,4,0Z"/>
</g>
</svg>